<?xml version="1.0" encoding="UTF-8"?>
<!DOCTYPE svg  PUBLIC '-//W3C//DTD SVG 1.1//EN'  'http://www.w3.org/Graphics/SVG/1.1/DTD/svg11.dtd'>
<svg width="75pt" height="77pt" version="1.1" viewBox="0 0 75 77" xmlns="http://www.w3.org/2000/svg">
<g fill="#fff" stroke="#fff" stroke-width=".09375">
<path d="m0 34.21c1.25-16.44 14.66-30.88 30.95-33.39 12.97-2.27 26.74 3.01 35.1 13.12-7.03 5.12-14.11 10.17-21.09 15.35-5.09-4.4-13.71-3.44-17.21 2.45-4.1 5.78-1.17 14.68 5.39 17.14 5.53 2.4 12.56-0.59 14.73-6.2 1.38-2.91 0.94-6.22 0.1-9.22 4.19-3.04 8.42-6.04 12.52-9.21 1.3 1.73 2.59 3.46 3.87 5.21 0.85-0.69 1.71-1.38 2.57-2.07-0.79-1.07-1.57-2.16-2.32-3.25l1.41-0.83c0.78 1.03 1.56 2.05 2.35 3.07 0.86-0.6 1.73-1.2 2.6-1.81-1.18-1.7-2.4-3.36-3.69-4.98 0.58-0.5 1.16-1.01 1.74-1.52 7.15 11.35 7.68 26.47 1.18 38.23-4.49 8.31-12.26 14.82-21.27 17.69-10.73 3.55-23.06 1.8-32.38-4.59-9.16-6.05-15.28-16.3-16.55-27.17v-8.02m25.12-25.35c-12.49 5.05-20.6 18.83-19.03 32.19 1.06 11.47 8.87 22.05 19.59 26.31 10.88 4.51 24.21 2.2 32.79-5.89 8.03-7.22 11.73-18.73 9.75-29.29-1.61 1.21-3.22 2.43-4.82 3.64-1.01-1.31-1.99-2.63-2.95-3.96-1.87 1.33-3.72 2.67-5.52 4.09 0.5 6.06-1.64 12.52-6.52 16.36-7.13 5.73-18.53 4.44-24.6-2.26-4.04-4.15-5.49-10.47-3.95-16.02 2.49-10.46 15.17-17.04 24.99-12.12 4.01-2.92 8.03-5.83 11.91-8.92-8.97-6.58-21.32-8.64-31.64-4.13z"/>
<path d="m31.29 43.68c-3.18-3.11-2.53-8.56 0.66-11.42 2.91 4.41 6.2 8.55 9.23 12.87-3.19 1.83-7.43 1.36-9.89-1.45z"/>
</g>
<path d="m25.12 8.86c10.32-4.51 22.67-2.45 31.64 4.13-3.88 3.09-7.9 6-11.91 8.92-9.82-4.92-22.5 1.66-24.99 12.12-1.54 5.55-0.09 11.87 3.95 16.02 6.07 6.7 17.47 7.99 24.6 2.26 4.88-3.84 7.02-10.3 6.52-16.36 1.8-1.42 3.65-2.76 5.52-4.09 0.96 1.33 1.94 2.65 2.95 3.96 1.6-1.21 3.21-2.43 4.82-3.64 1.98 10.56-1.72 22.07-9.75 29.29-8.58 8.09-21.91 10.4-32.79 5.89-10.72-4.26-18.53-14.84-19.59-26.31-1.57-13.36 6.54-27.14 19.03-32.19z" fill="#ea7e3d" stroke="#ea7e3d" stroke-width=".09375"/>
<path d="m44.96 29.29c6.98-5.18 14.06-10.23 21.09-15.35 1.08 1.31 2.09 2.67 2.97 4.13-0.58 0.51-1.16 1.02-1.74 1.52 1.29 1.62 2.51 3.28 3.69 4.98-0.87 0.61-1.74 1.21-2.6 1.81-0.79-1.02-1.57-2.04-2.35-3.07l-1.41 0.83c0.75 1.09 1.53 2.18 2.32 3.25-0.86 0.69-1.72 1.38-2.57 2.07-1.28-1.75-2.57-3.48-3.87-5.21-4.1 3.17-8.33 6.17-12.52 9.21 0.84 3 1.28 6.31-0.1 9.22-2.17 5.61-9.2 8.6-14.73 6.2-6.56-2.46-9.49-11.36-5.39-17.14 3.5-5.89 12.12-6.85 17.21-2.45m-13.67 14.39c2.46 2.81 6.7 3.28 9.89 1.45-3.03-4.32-6.32-8.46-9.23-12.87-3.19 2.86-3.84 8.31-0.66 11.42z" fill="#7976ac" stroke="#7976ac" stroke-width=".09375"/>
</svg>
